<?xml version="1.0" standalone="no"?>
<!DOCTYPE svg PUBLIC "-//W3C//DTD SVG 1.1//EN" "http://www.w3.org/Graphics/SVG/1.1/DTD/svg11.dtd" >
<svg xmlns="http://www.w3.org/2000/svg" xmlns:xlink="http://www.w3.org/1999/xlink" version="1.1">
<metadata></metadata>
<defs>
<font id="champagne__limousinesregular" horiz-adv-x="1070" >
<font-face units-per-em="2048" ascent="1638" descent="-410" />
<missing-glyph horiz-adv-x="508" />
<glyph horiz-adv-x="0" />
<glyph unicode="&#xd;" horiz-adv-x="508" />
<glyph unicode=" "  horiz-adv-x="508" />
<glyph unicode="&#x09;" horiz-adv-x="508" />
<glyph unicode="&#xa0;" horiz-adv-x="508" />
<glyph unicode="!" horiz-adv-x="269" d="M55 67q0 33 23.5 56t56.5 23q32 0 55.5 -23t23.5 -56t-23.5 -56t-55.5 -23q-33 0 -56.5 23t-23.5 56zM93 244v1170h80v-1170h-80z" />
<glyph unicode="&#x22;" horiz-adv-x="397" d="M55 881v530h80v-530h-80zM263 881v530h79v-530h-79z" />
<glyph unicode="#" horiz-adv-x="909" d="M-20 446l41 80h197l79 320h-200l42 80h177l88 358h75l-88 -358h225l88 358h75l-88 -358h198l-42 -80h-175l-79 -320h178l-41 -80h-157l-85 -346h-75l85 346h-225l-85 -346h-75l85 346h-218zM293 526h225l79 320h-225z" />
<glyph unicode="$" d="M176 398l72 27q11 -102 84 -173q71 -72 167 -82v622q-91 40 -150 99q-76 75 -76 183q0 105 76 181q64 65 150 75v89h80v-91q78 -14 137 -72q41 -40 59 -95l-69 -28q-15 41 -45 71q-36 35 -82 47v-410q121 -47 208 -134q106 -105 106 -253q0 -150 -106 -255 q-89 -90 -208 -104v-99h-80v98q-127 10 -221 105q-84 84 -102 199zM350 1074q0 -76 53 -129q37 -37 96 -70v379q-54 -9 -95 -51q-54 -53 -54 -129zM579 172q88 13 155 80q83 83 83 202q0 117 -83 200q-65 66 -155 107v-589z" />
<glyph unicode="%" d="M66 869q0 85 59.5 145t144.5 60t144.5 -60t59.5 -145q0 -84 -59.5 -144t-144.5 -60t-144.5 60t-59.5 144zM97 48l811 1158l65 -45l-811 -1158zM143 869q0 -53 37 -90t90 -37q52 0 89.5 37t37.5 90t-37.5 90.5t-89.5 37.5q-53 0 -90 -37.5t-37 -90.5zM596 339 q0 85 59.5 144.5t144.5 59.5t144.5 -59.5t59.5 -144.5t-59.5 -144.5t-144.5 -59.5t-144.5 59.5t-59.5 144.5zM673 339q0 -53 37 -90t90 -37q52 0 90 37t38 90t-38 90.5t-90 37.5q-53 0 -90 -37.5t-37 -90.5z" />
<glyph unicode="&#x26;" horiz-adv-x="1167" d="M73 403q0 173 121 302q83 89 216 134q-64 27 -130.5 98t-66.5 196q0 122 87.5 210t211.5 88t212 -88q49 -47 67 -105l-71 -28q-16 43 -52 79q-65 64 -156 64t-155.5 -64t-64.5 -156q0 -91 62.5 -157.5t115.5 -86.5t132 -21v-75l-63 -1q-194 -37 -291 -143t-97 -246 q0 -141 99.5 -241t241.5 -100q140 0 240 100q58 58 83 130q-11 5 -22 11q-42 24 -106 90q-42 39 -60 49q-19 10 -39 10q-11 0 -22 -2q-32 -9 -48 -37q-11 -20 -11 -39q0 -11 3 -22q9 -32 35 -46q17 -9 46 -9q16 0 36 3l-8 -73q-22 -6 -44 -6q-35 0 -69 18q-53 30 -70 92 q-6 22 -6 43q0 39 21 76q33 56 95 73q22 6 43 6q39 0 75 -21q35 -19 92 -79q51 -46 75 -60q27 -15 55 -15q16 0 32 5q46 12 70 54q15 27 15 55q0 15 -5 31q-12 45 -53 69q-25 14 -56 14q-22 0 -47 -7l-1 79q25 7 49 7q47 0 92 -26q69 -39 90 -115q7 -27 7 -52q0 -48 -25 -92 q-39 -69 -117 -91q-23 -6 -44 -7q-29 -95 -105 -171q-123 -124 -296 -124t-296 123t-123 297z" />
<glyph unicode="'" horiz-adv-x="190" d="M55 881v530h80v-530h-80z" />
<glyph unicode="(" horiz-adv-x="552" d="M55 689q0 421 211 664q66 77 142 130h89q-83 -50 -186 -188q-150 -204 -150 -561v-90q0 -358 150 -562q103 -138 186 -188h-89q-76 53 -142 130q-211 243 -211 665z" />
<glyph unicode=")" horiz-adv-x="552" d="M55 -106q83 50 186 188q150 204 150 562v90q0 357 -150 561q-103 138 -186 188h89q76 -53 142 -130q211 -243 211 -664q0 -422 -211 -665q-66 -77 -142 -130h-89z" />
<glyph unicode="*" horiz-adv-x="730" d="M75 1027l221 119l-221 119l46 66l205 -109v189h79v-188l204 108l46 -66l-221 -119l221 -119l-46 -66l-204 108v-188h-79v189l-205 -109z" />
<glyph unicode="+" d="M85 633v80h410v410h80v-410h410v-80h-410v-410h-80v410h-410z" />
<glyph unicode="," horiz-adv-x="336" d="M0 -194l91 341h147l-164 -341h-74z" />
<glyph unicode="-" horiz-adv-x="596" d="M48 483v80h500v-80h-500z" />
<glyph unicode="." horiz-adv-x="269" d="M55 67q0 33 23.5 56t56.5 23q32 0 55.5 -23t23.5 -56t-23.5 -56t-55.5 -23q-33 0 -56.5 23t-23.5 56z" />
<glyph unicode="/" horiz-adv-x="627" d="M-52 0l640 1414h91l-641 -1414h-90z" />
<glyph unicode="0" d="M50 695q0 334 142.5 526.5t343.5 192.5t342.5 -192.5t141.5 -526.5q0 -335 -141.5 -527.5t-342.5 -192.5t-343.5 192.5t-142.5 527.5zM134 695q0 -301 117.5 -468t283.5 -167t283.5 167t117.5 468q0 300 -117.5 467t-283.5 167t-283.5 -167t-117.5 -467z" />
<glyph unicode="1" d="M185 0v80h314v1176l-147 -96l-62 45l288 209v-1334h307v-80h-700z" />
<glyph unicode="2" d="M170 0q555 847 598 922.5t43 144.5q0 34 -8 69q-25 110 -119 169q-67 40 -139 40q-32 0 -64 -7q-108 -25 -167 -119q-33 -52 -40 -103l-82 12q6 67 49 134q80 125 221 157q43 10 84 10q98 0 185 -55q124 -78 156 -219q12 -52 12 -99q0 -83 -47.5 -168.5t-523.5 -807.5 h571v-80h-729z" />
<glyph unicode="3" d="M116 337l80 29q13 -118 98 -203q99 -98 238 -98q141 0 240 98.5t99 239.5q0 140 -96.5 245t-289.5 141l-66 2v79q82 1 134.5 21.5t114 86t61.5 155.5q0 91 -63.5 154t-153.5 63q-89 0 -154 -63q-35 -36 -52 -81l-76 30q19 62 68 109q89 88 214 88q126 0 214 -88.5 t88 -211.5q0 -126 -67 -198t-126 -96q128 -42 212 -132q121 -130 121 -304q0 -175 -123.5 -298.5t-298.5 -123.5q-174 0 -298 124q-98 99 -118 232z" />
<glyph unicode="4" d="M136 364l663 1110v-1031h135v-79h-135v-364h-80v364h-583zM273 443h446v749z" />
<glyph unicode="5" d="M85 186l57 62q75 -111 217 -154q64 -20 125 -20q99 0 193 50q153 81 204 247q20 64 20 126q0 99 -51 193q-81 152 -247 210q-72 25 -157 25q-113 0 -250 -43l-63 55l162 448v29h442v-80h-375l-131 -359q44 14 99 26q56 10 109 10q98 0 187 -31q199 -68 297 -251 q61 -114 61 -233q0 -75 -23 -150q-61 -198 -244 -297q-112 -59 -230 -59q-75 0 -153 24q-159 49 -249 172z" />
<glyph unicode="6" d="M142 373q9 228 130.5 476t334.5 565h106q-247 -361 -416 -727q103 80 238 80q163 0 277.5 -115t114.5 -279q0 -162 -114.5 -277.5t-277.5 -115.5q-162 0 -277.5 115.5t-115.5 277.5zM226 373q0 -128 90.5 -217.5t218.5 -89.5q127 0 217.5 89.5t90.5 217.5t-90.5 218.5 t-217.5 90.5q-128 0 -218.5 -90.5t-90.5 -218.5z" />
<glyph unicode="7" d="M118 1334v80h833q-5 -230 -187 -490t-298 -503q-116 -244 -125 -421h-83q9 212 131 460q121 248 280 481q158 233 192 393h-743z" />
<glyph unicode="8" d="M77 403q0 174 121 304q84 90 211 132q-58 24 -125 96t-67 198q0 123 87.5 209t234.5 87q138 -1 226 -87t88 -209q0 -126 -67.5 -198t-125.5 -96q127 -42 211 -132q121 -130 121 -304q0 -175 -113 -293.5t-344 -118.5t-344.5 118.5t-113.5 293.5zM160 403 q0 -141 89 -234.5t287 -102.5q195 9 284 102.5t89 234.5q0 140 -96 245q-94 102 -278 139q-185 -37 -279 -139q-96 -105 -96 -245zM301 1133q0 -90 61.5 -155.5t172.5 -100.5q110 35 171.5 100.5t61.5 155.5q0 91 -48.5 149t-183.5 67h-2q-135 -9 -184 -67t-49 -149z" />
<glyph unicode="9" d="M142 1041q0 162 114.5 277.5t277.5 115.5q162 0 277.5 -115.5t115.5 -293.5q-9 -212 -130.5 -460t-334.5 -565h-106q247 341 416 727q-103 -80 -238 -80q-163 0 -277.5 115t-114.5 279zM226 1041q0 -128 90.5 -218.5t217.5 -90.5q128 0 218.5 90.5t90.5 218.5 t-90.5 217.5t-218.5 89.5q-127 0 -217.5 -89.5t-90.5 -217.5z" />
<glyph unicode=":" horiz-adv-x="269" d="M55 67q0 33 23.5 56t56.5 23q32 0 55.5 -23t23.5 -56t-23.5 -56t-55.5 -23q-33 0 -56.5 23t-23.5 56zM55 684q0 33 23.5 56t56.5 23q32 0 55.5 -23t23.5 -56t-23.5 -56t-55.5 -23q-33 0 -56.5 23t-23.5 56z" />
<glyph unicode=";" horiz-adv-x="293" d="M0 -194l91 341h147l-164 -341h-74zM79 684q0 33 23.5 56t56.5 23q32 0 55.5 -23t23.5 -56t-23.5 -56t-55.5 -23q-33 0 -56.5 23t-23.5 56z" />
<glyph unicode="&#x3c;" d="M89 772l892 426v-92l-723 -334l723 -334v-92z" />
<glyph unicode="=" d="M85 775v80h900v-80h-900zM89 492v80h892v-80h-892z" />
<glyph unicode="&#x3e;" d="M89 346v92l723 334l-723 334v92l892 -426z" />
<glyph unicode="?" horiz-adv-x="752" d="M52 1089q0 83 16 124q53 127 171 174q59 23 117 23q59 0 117 -23q116 -48 158 -160q21 -56 21 -110q0 -55 -21 -108q-42 -106 -200 -302q-140 -174 -140 -332q0 -20 2 -40h-79q-1 14 -1 27q0 197 148 379q176 217 201 309q10 36 10 69q0 52 -24 96q-39 73 -124 104 q-39 14 -76 14q-47 0 -92 -21q-83 -39 -114 -124q-12 -33 -13 -94zM190 67q0 33 23.5 56t56.5 23q32 0 55.5 -23t23.5 -56t-23.5 -56t-55.5 -23q-33 0 -56.5 23t-23.5 56z" />
<glyph unicode="@" horiz-adv-x="1547" d="M50 630q18 342 241.5 554t521.5 212q334 0 515 -182q169 -172 169 -386q-13 -262 -124 -384q-102 -113 -229 -113q-102 11 -102 82q0 8 2 18q-134 -134 -292 -134q-157 0 -263 113q-99 103 -99 244q11 181 128.5 293t275.5 112q157 0 277 -133l6 118h85l-56 -497v-26 q0 -125 45 -134q88 6 169 98t93 328q0 193 -148 341q-159 158 -457 158q-263 0 -459.5 -187t-212.5 -489q0 -237 164 -409q175 -186 438 -186q180 0 265 51l56 -63q-129 -73 -326 -73q-297 0 -497 212q-186 194 -186 462zM482 659q0 -109 75 -188q80 -86 202 -86 q121 0 212 85q62 60 84 139l8 137q-14 79 -69 138q-82 87 -203 87q-122 0 -212 -86t-97 -226z" />
<glyph unicode="A" horiz-adv-x="1116" d="M-1 0l519 1414h82l513 -1414h-84l-226 622h-489l-230 -622h-85zM343 701h431l-215 593z" />
<glyph unicode="B" horiz-adv-x="1033" d="M112 0v1414h422q121 0 205.5 -85t84.5 -205t-85 -205q-18 -19 -36 -32q78 -33 143 -99q135 -135 135 -327q0 -191 -135 -326q-113 -113 -275 -135h-459zM192 80h327q157 0 268 111.5t111 269.5t-111 270t-268 112h-327v-763zM192 923h360q87 9 130 52q61 61 61 149 q0 87 -61.5 149t-148.5 62h-341v-412z" />
<glyph unicode="C" horiz-adv-x="1347" d="M74 707q0 299 211.5 511.5t512.5 212.5q280 0 487 -189l-61 -54q-182 161 -426 161q-266 0 -454.5 -188t-188.5 -454q0 -267 188.5 -455t454.5 -188q244 0 426 161l61 -54q-207 -188 -487 -188q-301 0 -512.5 211.5t-211.5 512.5z" />
<glyph unicode="D" horiz-adv-x="1189" d="M112 0v1414h262q349 -2 541 -195q212 -213 212 -512q0 -301 -212 -513q-192 -192 -541 -194h-262zM192 82h181q305 0 481 170q188 188 188 455q0 266 -188 455q-176 169 -481 169h-181v-1249z" />
<glyph unicode="E" horiz-adv-x="931" d="M112 0v1414h707v-80h-627v-587h627v-80h-627v-587h627v-80h-707z" />
<glyph unicode="F" horiz-adv-x="783" d="M112 0v1414h619v-80h-539v-587h539v-80h-539v-667h-80z" />
<glyph unicode="G" horiz-adv-x="1359" d="M74 707q0 299 211.5 511.5t512.5 212.5q280 0 487 -189l-61 -54q-182 161 -426 161q-266 0 -454.5 -188t-188.5 -454q0 -267 188.5 -455t454.5 -188q228 0 402 140v431h79v-459q-201 -193 -481 -193q-301 0 -512.5 211.5t-211.5 512.5z" />
<glyph unicode="H" horiz-adv-x="1072" d="M94 0v1414h80v-667h724v667h80v-1414h-80v667h-724v-667h-80z" />
<glyph unicode="I" horiz-adv-x="324" d="M122 0v1414h80v-1414h-80z" />
<glyph unicode="J" horiz-adv-x="306" d="M-61 -202q73 0 124 50q49 49 49 135v1431h80v-1441q0 -108 -73 -178t-180 -70v73z" />
<glyph unicode="K" horiz-adv-x="999" d="M112 0v1414h80v-677l473 677h97l-367 -531l618 -883h-97l-572 817l-152 -218v-599h-80z" />
<glyph unicode="L" horiz-adv-x="783" d="M112 0v1414h80v-1334h539v-80h-619z" />
<glyph unicode="M" horiz-adv-x="1442" d="M94 0v1414h116l512 -670l511 670h116v-1414h-80v1328l-547 -717l-548 717v-1328h-80z" />
<glyph unicode="N" horiz-adv-x="1339" d="M109 0v1414h101l940 -1317v1317h80v-1414h-123l-918 1286v-1286h-80z" />
<glyph unicode="O" horiz-adv-x="1575" d="M62 709q0 300 212.5 512.5t512.5 212.5q301 0 513.5 -212.5t212.5 -512.5q0 -301 -212.5 -513.5t-513.5 -212.5q-300 0 -512.5 212.5t-212.5 513.5zM143 709q0 -267 189 -456t455 -189q267 0 456 189t189 456q0 266 -189 455t-456 189q-266 0 -455 -189t-189 -455z" />
<glyph unicode="P" horiz-adv-x="959" d="M112 0v1414h371q162 -22 275 -135q135 -136 135 -326q0 -192 -135 -327.5t-326 -135.5h-240v-490h-80zM192 571h240q157 0 269 111.5t112 270.5q0 158 -112 269t-269 111h-240v-762z" />
<glyph unicode="Q" horiz-adv-x="1575" d="M62 709q0 300 212.5 512.5t512.5 212.5q301 0 513.5 -212.5t212.5 -512.5q0 -301 -212 -513q-154 -154 -353 -196q74 -20 183 -89q74 -40 152 -51q107 3 117 120h80q-23 -172 -178 -184q-127 0 -238 67q-124 65 -196 70q-67 -5 -100 -35t-44.5 -71t-12.5 -51h-80 q27 175 148 207q-295 3 -504 213q-213 212 -213 513zM143 709q0 -267 189 -456t455 -189q267 0 456 189t189 456q0 266 -189 455t-456 189q-266 0 -455 -189t-189 -455z" />
<glyph unicode="R" horiz-adv-x="959" d="M112 0v1414h371q162 -22 275 -135q135 -136 135 -326q0 -192 -135 -327q-94 -94 -215 -123l326 -503h-98l-315 490h-264v-490h-80zM192 571h240q157 0 269 111.5t112 270.5q0 158 -112 269t-269 111h-240v-762z" />
<glyph unicode="S" horiz-adv-x="942" d="M55 335l75 27q12 -115 98 -200q100 -100 241 -100t241 100t100 241q0 140 -100 240q-88 88 -215 140q-151 50 -238.5 137.5t-87.5 212.5q0 122 87.5 210t212.5 88q123 0 212 -88q48 -47 67 -105l-72 -28q-16 43 -52 79q-64 64 -155 64t-155.5 -64t-64.5 -156 q0 -91 64 -156q60 -59 166 -108q170 -55 286 -171q122 -122 122 -295q0 -174 -122.5 -297t-295.5 -123q-174 0 -296 124q-99 98 -118 228z" />
<glyph unicode="T" horiz-adv-x="859" d="M32 1334v80h795v-80h-358v-1334h-79v1334h-358z" />
<glyph unicode="U" horiz-adv-x="1147" d="M112 449v965h80v-965q0 -157 112 -269t270 -112t269.5 112t111.5 269v965h80v-1016q-22 -162 -135 -275q-135 -135 -326 -135q-192 0 -327 135t-135 326z" />
<glyph unicode="V" horiz-adv-x="1065" d="M0 1414h84l449 -1270l448 1270h84l-508 -1414h-49z" />
<glyph unicode="W" horiz-adv-x="1602" d="M0 1414h81l346 -1285l351 910h46l352 -910l345 1285h81l-380 -1414h-80l-341 894l-341 -894h-80z" />
<glyph unicode="X" horiz-adv-x="1018" d="M15 0l448 777l-368 637h91l322 -559l323 559h91l-369 -637l450 -777h-91l-404 698l-403 -698h-90z" />
<glyph unicode="Y" horiz-adv-x="1116" d="M32 1414h91l435 -754l435 754h91l-486 -842v-572h-80v572z" />
<glyph unicode="Z" horiz-adv-x="1075" d="M84 0l770 1334h-670v80h807l-771 -1334h841v-80h-977z" />
<glyph unicode="[" horiz-adv-x="384" d="M55 -119v1665h274v-79h-194v-1507h194v-79h-274z" />
<glyph unicode="\" horiz-adv-x="627" d="M-52 1414h91l640 -1414h-90z" />
<glyph unicode="]" horiz-adv-x="384" d="M55 -40h194v1507h-194v79h274v-1665h-274v79z" />
<glyph unicode="^" horiz-adv-x="833" d="M98 942l273 472h92l272 -472h-92l-226 391l-226 -391h-93z" />
<glyph unicode="_" horiz-adv-x="794" d="M-45 -27h884v-79h-884v79z" />
<glyph unicode="`" horiz-adv-x="441" d="M75 1137h147l144 -165h-75z" />
<glyph unicode="a" horiz-adv-x="1122" d="M74 460q0 202 142.5 344t342.5 142q202 0 344 -142q27 -28 50 -59v123h80v-868h-80v177q-23 -31 -50 -59q-142 -143 -344 -143q-200 0 -342.5 142.5t-142.5 342.5zM158 460q0 -166 117.5 -283t283.5 -117t284 118q88 88 110 204v157q-22 117 -110 205q-118 118 -284 118 t-283.5 -118t-117.5 -284z" />
<glyph unicode="b" horiz-adv-x="1131" d="M99 0v1414h80v-668q22 30 50 58q142 142 343 142t343 -142t142 -344q0 -200 -142 -342.5t-343 -142.5t-343 143q-28 28 -50 58v-176h-80zM179 377q22 -113 109 -199q118 -118 284 -118t283.5 117t117.5 283t-117.5 284t-283.5 118t-284 -118q-87 -87 -109 -201v-166z" />
<glyph unicode="c" horiz-adv-x="985" d="M52 461q0 201 142.5 343t342.5 142q202 0 344 -142q29 -29 52 -60l-84 -31q-13 16 -28 32q-118 117 -284 117q-165 0 -282.5 -117.5t-117.5 -283.5t117.5 -283.5t282.5 -117.5q166 0 284 118q15 15 28 31l84 -31q-23 -31 -52 -60q-142 -143 -344 -143 q-200 0 -342.5 142.5t-142.5 343.5z" />
<glyph unicode="d" horiz-adv-x="1122" d="M74 460q0 202 142.5 344t342.5 142q202 0 344 -142q27 -28 50 -59v669h80v-1414h-80v177q-23 -31 -50 -59q-142 -143 -344 -143q-200 0 -342.5 142.5t-142.5 342.5zM158 460q0 -166 117.5 -283t283.5 -117t284 118q88 88 110 204v157q-22 117 -110 205q-118 118 -284 118 t-283.5 -118t-117.5 -284z" />
<glyph unicode="e" horiz-adv-x="1042" d="M52 460q0 202 142.5 344t342.5 142q202 0 344 -142q125 -126 125 -299h-867q-3 -21 -3 -45q0 -166 117.5 -283t283.5 -117t284 118q20 20 38 42l85 -30q-15 -25 -63 -72q-142 -143 -344 -143q-200 0 -342.5 142.5t-142.5 342.5zM154 586h762q-28 91 -95 158 q-118 118 -284 118t-284 -118q-70 -71 -99 -158z" />
<glyph unicode="f" horiz-adv-x="383" d="M22 788v80h88v235q6 98 75 169q73 67 167 67q50 0 105 -19l-25 -71q-37 16 -72 16q-62 0 -118 -50q-49 -49 -52 -118v-229h177v-80h-177v-788h-80v788h-88z" />
<glyph unicode="g" horiz-adv-x="1083" d="M52 460q0 202 142.5 343.5t342.5 141.5q202 0 344 -141q27 -28 50 -59v123h80v-674q0 -196 -139 -334q-142 -143 -343 -143t-344 143q-29 29 -52 60l84 31q13 -16 29 -31q117 -118 283 -118q165 0 283 118q107 107 117 252q-23 -28 -48 -54q-142 -143 -344 -143 q-200 0 -342.5 142.5t-142.5 342.5zM136 460q0 -166 117.5 -283.5t283.5 -117.5t284 118q85 85 109 199v167q-23 114 -109 201q-118 118 -284 118t-283.5 -118t-117.5 -284z" />
<glyph unicode="h" horiz-adv-x="859" d="M94 0v1414h80v-591q100 97 242 97q153 0 249.5 -96.5t99.5 -242.5v-581h-80v573q0 111 -80 189t-189 78q-110 0 -189 -77q-36 -35 -53 -73v-690h-80z" />
<glyph unicode="i" horiz-adv-x="317" d="M79 1097q0 32 23.5 55t56.5 23q32 0 55.5 -23t23.5 -55q0 -34 -23.5 -57t-55.5 -23q-33 0 -56.5 23t-23.5 57zM119 0v868h79v-868h-79z" />
<glyph unicode="j" horiz-adv-x="284" d="M-11 -122q107 12 107 120v870h79v-868q0 -179 -186 -194v72zM56 1097q0 32 23.5 55t56.5 23q32 0 55.5 -23t23.5 -55q0 -34 -23.5 -57t-55.5 -23q-33 0 -56.5 23t-23.5 57z" />
<glyph unicode="k" horiz-adv-x="635" d="M99 0v1237h80v-667l241 298h102l-214 -265l341 -603h-98l-295 539l-77 -96v-443h-80z" />
<glyph unicode="l" horiz-adv-x="300" d="M110 0v1414h80v-1414h-80z" />
<glyph unicode="m" horiz-adv-x="1148" d="M99 0v868h80v-21q74 72 177 72q107 0 182 -75q20 -20 35 -44q16 23 37 44q75 75 182 75t182 -75q71 -73 75 -174v-670h-80v670h1q-3 69 -52 117q-53 52 -126 52q-74 0 -126.5 -52t-52.5 -130v-657h-79v670h1q-4 69 -53 117q-53 52 -126 52t-125 -52q-46 -45 -52 -110 v-677h-80z" />
<glyph unicode="n" horiz-adv-x="879" d="M99 0v868h80v-56q108 108 252 108q154 0 250.5 -96.5t98.5 -242.5v-581h-79v573q0 111 -80 189t-190 78q-109 0 -189 -77q-43 -43 -63 -89v-674h-80z" />
<glyph unicode="o" horiz-adv-x="1114" d="M72 460q0 202 142.5 344t342.5 142q202 0 343.5 -142t141.5 -344q0 -200 -141.5 -342.5t-343.5 -142.5q-200 0 -342.5 142.5t-142.5 342.5zM156 460q0 -166 117.5 -283t283.5 -117t283.5 117t117.5 283t-117.5 284t-283.5 118t-283.5 -118t-117.5 -284z" />
<glyph unicode="p" horiz-adv-x="1110" d="M92 -331v1199h80v-122q22 30 50 58q142 141 343 141t343 -141.5t142 -343.5q0 -200 -142 -342.5t-343 -142.5t-343 143q-28 28 -50 58v-507h-80zM172 377q22 -114 109 -200q118 -118 284 -118t283.5 117.5t117.5 283.5t-117.5 284t-283.5 118t-284 -118 q-87 -87 -109 -201v-166z" />
<glyph unicode="q" horiz-adv-x="1107" d="M60 460q0 202 142.5 343.5t342.5 141.5q202 0 344 -141q27 -28 50 -59v123h80v-1199h-80v508q-23 -31 -50 -59q-142 -143 -344 -143q-200 0 -342.5 142.5t-142.5 342.5zM144 460q0 -166 117.5 -283.5t283.5 -117.5t284 118q88 88 110 205v157q-22 117 -110 205 q-118 118 -284 118t-283.5 -118t-117.5 -284z" />
<glyph unicode="r" horiz-adv-x="406" d="M77 0v868h80v-188q50 131 205 195l44 -77q-85 -13 -167 -108t-82 -192v-498h-80z" />
<glyph unicode="s" horiz-adv-x="644" d="M55 240l79 20q0 -77 52.5 -129.5t125.5 -52.5t126 52.5t53 127.5q0 73 -53 125q-28 28 -114 83q-101 55 -140 94q-61 61 -61 147t61 147.5t147 61.5t143 -57q55 -55 55 -126v-4l-69 -28q-9 67 -42 101t-87 34q-53 0 -91 -38t-38 -91t38 -91q22 -23 93 -68 q113 -61 161 -109q75 -76 75 -181q0 -108 -75 -183.5t-182 -75.5t-182 75.5t-75 165.5z" />
<glyph unicode="t" horiz-adv-x="497" d="M32 788v80h177v369h79v-369h177v-80h-177v-788h-79v788h-177z" />
<glyph unicode="u" horiz-adv-x="880" d="M87 327v542h80v-535q0 -110 80 -188q79 -79 197 -79q110 0 189.5 78.5t79.5 188.5v535h80v-542q-3 -147 -99 -243t-249 -96q-163 0 -259 96t-99 243z" />
<glyph unicode="v" horiz-adv-x="814" d="M0 868h93l312 -723l316 723h93l-388 -868h-42z" />
<glyph unicode="w" horiz-adv-x="1094" d="M0 868h91l230 -713l204 565h45l204 -565l229 713h91l-295 -868h-50l-202 566l-202 -566h-51z" />
<glyph unicode="x" horiz-adv-x="662" d="M0 0l285 459l-255 409h93l208 -335l208 335h93l-255 -409l285 -459h-92l-239 384l-239 -384h-92z" />
<glyph unicode="y" horiz-adv-x="779" d="M15 868h89l285 -606l286 606h89l-559 -1198h-89l229 491z" />
<glyph unicode="z" horiz-adv-x="743" d="M62 0l448 776h-448v79h585l-449 -775h483v-80h-619z" />
<glyph unicode="{" horiz-adv-x="516" d="M90 712v12q141 29 141 325v32q0 442 230 468v-60q-156 -41 -156 -424v-42q0 -228 -92 -305q92 -77 92 -305v-42q0 -383 156 -424v-60q-230 26 -230 468v32q0 296 -141 325z" />
<glyph unicode="|" horiz-adv-x="480" d="M200 -126v1540h80v-1540h-80z" />
<glyph unicode="}" horiz-adv-x="516" d="M55 -53q156 41 156 424v42q0 228 92 305q-92 77 -92 305v42q0 383 -156 424v60q230 -26 230 -468v-32q0 -296 141 -325v-12q-141 -29 -141 -325v-32q0 -442 -230 -468v60z" />
<glyph unicode="~" horiz-adv-x="1057" d="M75 625q2 42 19 85q41 98 139 131q22 7 49 7q93 0 246 -87q166 -97 242 -97q13 0 23 3q68 20 96 88q13 34 13 69l80 -13q-3 -42 -20 -86q-41 -98 -138 -130q-22 -7 -49 -7q-93 0 -246 87q-168 96 -242 96q-12 0 -23 -2q-68 -21 -95 -89q-14 -34 -14 -68z" />
<glyph unicode="&#xa2;" d="M176 878q0 163 116 279q88 88 204 109v143h79v-137q159 -1 273 -115q23 -24 46 -54l-77 -29q-13 16 -24 28q-91 90 -218 92v-631q127 2 218 93q11 11 24 27l77 -28q-23 -31 -46 -55q-114 -114 -273 -116v-136h-79v142q-116 21 -204 110q-116 115 -116 278zM255 878 q0 -130 92 -222q65 -66 149 -85v615q-84 -20 -149 -84q-92 -93 -92 -224z" />
<glyph unicode="&#xa3;" horiz-adv-x="892" d="M70 490v80h184q-23 84 -66 167q-98 159 -112 337q0 122 81 220q101 108 252 115q11 1 23 1q135 0 225 -75l-32 -72q-70 67 -188 67h-16q-129 -5 -199 -89q-62 -75 -62 -167q10 -127 70 -253q76 -122 107 -251h175v-80h-160q5 -40 5 -82q0 -153 -147 -328h612v-80h-719v78 q175 171 175 323q0 45 -7 89h-201z" />
<glyph unicode="&#xa5;" d="M9 1414h91l430 -747h9l431 747h91l-432 -747h260v-79h-306l-8 -16v-90h314v-80h-314v-402h-80v402h-313v80h313v90l-9 16h-304v79h258z" />
<glyph unicode="&#xa8;" horiz-adv-x="574" d="M75 1057q0 32 23.5 55t56.5 23q32 0 55.5 -23t23.5 -55q0 -34 -23.5 -57t-55.5 -23q-33 0 -56.5 23t-23.5 57zM340 1057q0 32 23.5 55t56.5 23q32 0 55.5 -23t23.5 -55q0 -34 -23.5 -57t-55.5 -23q-33 0 -56.5 23t-23.5 57z" />
<glyph unicode="&#xa9;" horiz-adv-x="1217" d="M50 545q0 231 163.5 395t394.5 164q232 0 395.5 -164t163.5 -395t-163.5 -394.5t-395.5 -163.5q-231 0 -394.5 163.5t-163.5 394.5zM126 545q0 -200 141.5 -341t340.5 -141q200 0 341.5 141t141.5 341t-141.5 341.5t-341.5 141.5q-199 0 -340.5 -141.5t-141.5 -341.5z M332 546q0 124 88 211.5t212 87.5t212 -87q17 -19 41 -51l-73 -27q-13 15 -22 25q-66 65 -158 65q-93 0 -159 -65.5t-66 -158.5t66 -159t159 -66q92 0 158 66q9 9 22 25l73 -28q-24 -32 -41 -50q-88 -88 -212 -88t-212 88t-88 212z" />
<glyph unicode="&#xab;" horiz-adv-x="816" d="M55 425l396 425v-113l-291 -312l291 -311v-114zM359 425l402 425v-113l-290 -312l290 -311v-114z" />
<glyph unicode="&#xad;" horiz-adv-x="596" d="M48 483v80h500v-80h-500z" />
<glyph unicode="&#xae;" horiz-adv-x="1175" d="M50 858q0 223 157.5 375.5t380.5 152.5q222 0 379.5 -152.5t157.5 -375.5q-30 -293 -230 -317q-17 -3 -34 -3q-177 0 -288 243h-47v-195h-87v526h148q210 -2 221 -162q0 -119 -160 -157q117 -194 225 -194q13 0 25 3q120 25 150 256q0 191 -134.5 326t-325.5 135 t-326 -135t-135 -326t135 -326t431 -135q147 0 295 110v-77q-156 -110 -311 -110q-312 0 -469.5 157.5t-157.5 380.5zM526 851h69q125 0 130 103q0 89 -120 89h-79v-192z" />
<glyph unicode="&#xb4;" horiz-adv-x="441" d="M75 972l144 165h147l-217 -165h-74z" />
<glyph unicode="&#xb8;" horiz-adv-x="464" d="M100 -222l37 40q34 -35 73 -35q10 0 21 3q47 11 47 57v6q-3 43 -99 43q-17 0 -37 -1l52 125h64l-26 -68q92 -7 118 -61q14 -29 14 -56q0 -23 -11 -44q-23 -45 -85 -55q-23 -4 -43 -4q-34 0 -58 11q-39 17 -67 39z" />
<glyph unicode="&#xbb;" horiz-adv-x="816" d="M55 0v114l289 311l-289 312v113l402 -425zM365 0v114l290 311l-290 312v113l396 -425z" />
<glyph unicode="&#x2c6;" horiz-adv-x="655" d="M95 973l228 187l237 -187h-92l-145 106l-135 -106h-93z" />
<glyph unicode="&#x2da;" horiz-adv-x="494" d="M134 977q0 47 33 80t80 33t80 -33t33 -80t-33 -80t-80 -33t-80 33t-33 80zM196 977q0 -21 15 -36.5t36 -15.5t36.5 15.5t15.5 36.5q0 22 -15.5 37t-36.5 15t-36 -15t-15 -37z" />
<glyph unicode="&#x2dc;" horiz-adv-x="533" d="M75 994q1 37 9 60q18 55 63 74q11 5 25 5q41 0 104 -46q59 -43 82 -43h4q18 7 26 32q4 14 4 49l66 -13q-2 -37 -10 -61q-18 -55 -62 -74q-12 -4 -25 -4q-41 0 -105 45q-59 44 -82 44q-3 0 -4 -1q-17 -6 -25 -32q-5 -14 -5 -49z" />
<glyph unicode="&#x401;" horiz-adv-x="931" d="M112 0v1414h707v-80h-627v-587h627v-80h-627v-587h627v-80h-707zM254 1603q0 32 23.5 55t56.5 23q32 0 55.5 -23t23.5 -55q0 -34 -23.5 -57t-55.5 -23q-33 0 -56.5 23t-23.5 57zM519 1603q0 32 23.5 55t56.5 23q32 0 55.5 -23t23.5 -55q0 -34 -23.5 -57t-55.5 -23 q-33 0 -56.5 23t-23.5 57z" />
<glyph unicode="&#x402;" horiz-adv-x="1447" d="M60 1334v80h795v-80h-358v-622q24 32 55 61q133 122 339 122t345 -122q131 -99 131 -357q0 -259 -131 -367q-38 -33 -80 -58l-53 58q33 20 64 47q118 103 120 310q-2 206 -120 309q-120 105 -285 105q-166 0 -276 -105q-100 -95 -109 -219v-496h-79v1334h-358z" />
<glyph unicode="&#x403;" horiz-adv-x="783" d="M112 0v1414h619v-80h-539v-1334h-80zM325 1518l144 165h147l-217 -165h-74z" />
<glyph unicode="&#x404;" horiz-adv-x="1553" d="M97 709q0 300 212.5 512.5t512.5 212.5q301 0 514 -212q62 -63 105 -132h-98q-29 38 -65 74q-189 189 -456 189q-266 0 -455 -189q-175 -175 -188 -415h871v-80h-871q13 -241 188 -416q189 -189 455 -189q267 0 456 189q101 101 148 225h87q-52 -157 -177 -282 q-213 -213 -514 -213q-300 0 -512.5 212.5t-212.5 513.5z" />
<glyph unicode="&#x405;" horiz-adv-x="942" d="M55 335l75 27q12 -115 98 -200q100 -100 241 -100t241 100t100 241q0 140 -100 240q-88 88 -215 140q-151 50 -238.5 137.5t-87.5 212.5q0 122 87.5 210t212.5 88q123 0 212 -88q48 -47 67 -105l-72 -28q-16 43 -52 79q-64 64 -155 64t-155.5 -64t-64.5 -156 q0 -91 64 -156q60 -59 166 -108q170 -55 286 -171q122 -122 122 -295q0 -174 -122.5 -297t-295.5 -123q-174 0 -296 124q-99 98 -118 228z" />
<glyph unicode="&#x406;" horiz-adv-x="324" d="M122 0v1414h80v-1414h-80z" />
<glyph unicode="&#x407;" horiz-adv-x="324" d="M-50 1603q0 32 23.5 55t56.5 23q32 0 55.5 -23t23.5 -55q0 -34 -23.5 -57t-55.5 -23q-33 0 -56.5 23t-23.5 57zM122 0v1414h80v-1414h-80zM215 1603q0 32 23.5 55t56.5 23q32 0 55.5 -23t23.5 -55q0 -34 -23.5 -57t-55.5 -23q-33 0 -56.5 23t-23.5 57z" />
<glyph unicode="&#x408;" horiz-adv-x="306" d="M-61 -202q73 0 124 50q49 49 49 135v1431h80v-1441q0 -108 -73 -178t-180 -70v73z" />
<glyph unicode="&#x409;" horiz-adv-x="1986" d="M50 -5v80q73 0 124 50q49 49 49 135v1154h884v-669h463q147 -3 243 -108.5t96 -258.5q0 -163 -96 -269t-243 -109h-543v1334h-724v-1084q0 -108 -73 -181.5t-180 -73.5zM1107 80h456q110 0 188.5 89.5t78.5 207.5q0 110 -78.5 199t-188.5 89h-456v-585z" />
<glyph unicode="&#x40a;" horiz-adv-x="1865" d="M100 0v1414h80v-667h724v667h80v-669h472q147 -3 243 -108.5t96 -258.5q0 -163 -96 -269t-243 -109h-552v667h-724v-667h-80zM984 80h465q110 0 188.5 89.5t78.5 207.5q0 110 -78.5 199t-188.5 89h-465v-585z" />
<glyph unicode="&#x40b;" horiz-adv-x="1445" d="M52 1334v80h795v-80h-358v-622q24 32 55 61q133 122 339 122t335 -122q127 -122 127 -382v-391h-87l1 399q0 211 -110 321q-105 105 -261 105h-14q-166 -5 -276 -110q-99 -95 -109 -219v-496h-79v1334h-358z" />
<glyph unicode="&#x40c;" horiz-adv-x="999" d="M112 0v1414h80v-677l473 677h97l-367 -531l618 -883h-97l-572 817l-152 -218v-599h-80zM325 1518l144 165h147l-217 -165h-74z" />
<glyph unicode="&#x40d;" horiz-adv-x="1339" d="M109 0v1414h80v-1317l940 1317h101v-1414h-80v1286l-918 -1286h-123zM457 1683h147l144 -165h-75z" />
<glyph unicode="&#x40e;" horiz-adv-x="1127" d="M-40 1414h91l542 -828l483 828h91q-698 -1245 -842 -1357q-88 -68 -164 -68q-49 0 -94 28l39 70q44 -24 84 -24q18 0 35 5q54 15 200 239l125 204zM364 1685h70q11 -20 28 -37q42 -43 103 -43q59 0 101 43q18 17 28 37h68q-14 -46 -51 -83q-60 -61 -146 -61 q-88 0 -148 61q-39 39 -53 83z" />
<glyph unicode="&#x40f;" horiz-adv-x="1127" d="M90 1v1413h80v-1333h787v1333h80v-1414h-438v-331h-79v332h-430z" />
<glyph unicode="&#x410;" horiz-adv-x="1116" d="M-1 0l519 1414h82l513 -1414h-84l-226 622h-489l-230 -622h-85zM343 701h431l-215 593z" />
<glyph unicode="&#x411;" horiz-adv-x="1031" d="M100 2v80h5v585h-5v80h5v667h619v-80h-539v-587h457q147 -3 243 -108.5t96 -258.5q0 -163 -96 -269t-243 -109h-457v-2h-80v2h-5zM185 82h450q110 0 188.5 89.5t78.5 207.5q0 110 -78.5 199t-188.5 89h-450v-585z" />
<glyph unicode="&#x412;" horiz-adv-x="1033" d="M112 0v1414h422q121 0 205.5 -85t84.5 -205t-85 -205q-18 -19 -36 -32q78 -33 143 -99q135 -135 135 -327q0 -191 -135 -326q-113 -113 -275 -135h-459zM192 80h327q157 0 268 111.5t111 269.5t-111 270t-268 112h-327v-763zM192 923h360q87 9 130 52q61 61 61 149 q0 87 -61.5 149t-148.5 62h-341v-412z" />
<glyph unicode="&#x413;" horiz-adv-x="783" d="M112 0v1414h619v-80h-539v-1334h-80z" />
<glyph unicode="&#x414;" horiz-adv-x="1169" d="M20 87h9q329 378 329 939q0 166 -51 388h693l1 -1327h78v-418h-79v331h-901v-331h-79v418zM123 87h797v1247h-511q29 -143 29 -308q0 -602 -315 -939z" />
<glyph unicode="&#x415;" horiz-adv-x="931" d="M112 0v1414h707v-80h-627v-587h627v-80h-627v-587h627v-80h-707z" />
<glyph unicode="&#x416;" horiz-adv-x="1693" d="M-14 0l618 883l-367 531h97l472 -676v676h81v-676l472 676h97l-367 -531l618 -883h-97l-572 817l-151 -217v-600h-81v600l-151 217l-572 -817h-97z" />
<glyph unicode="&#x417;" horiz-adv-x="923" d="M90 120v100q118 -135 343 -135q126 0 231 72.5t105 208.5t-74 221t-208 85h-334v79h334q134 0 208 84.5t74 220.5t-95 213.5t-221 77.5q-206 0 -363 -116v78q151 112 343 112q181 0 300.5 -96.5t119.5 -257.5q0 -249 -171 -355q171 -86 171 -355q0 -161 -119.5 -258.5 t-300.5 -97.5q-195 0 -343 119z" />
<glyph unicode="&#x418;" horiz-adv-x="1339" d="M109 0v1414h80v-1317l940 1317h101v-1414h-80v1286l-918 -1286h-123z" />
<glyph unicode="&#x419;" horiz-adv-x="1339" d="M109 0v1414h80v-1317l940 1317h101v-1414h-80v1286l-918 -1286h-123zM470 1685h70q11 -20 28 -37q42 -43 103 -43q59 0 101 43q18 17 28 37h68q-14 -46 -51 -83q-60 -61 -146 -61q-88 0 -148 61q-39 39 -53 83z" />
<glyph unicode="&#x41a;" horiz-adv-x="999" d="M112 0v1414h80v-677l473 677h97l-367 -531l618 -883h-97l-572 817l-152 -218v-599h-80z" />
<glyph unicode="&#x41b;" horiz-adv-x="1201" d="M50 -5v80q73 0 124 50q49 49 49 135v1154h884v-1414h-80v1334h-724v-1084q0 -108 -73 -181.5t-180 -73.5z" />
<glyph unicode="&#x41c;" horiz-adv-x="1442" d="M94 0v1414h116l512 -670l511 670h116v-1414h-80v1328l-547 -717l-548 717v-1328h-80z" />
<glyph unicode="&#x41d;" horiz-adv-x="1072" d="M94 0v1414h80v-667h724v667h80v-1414h-80v667h-724v-667h-80z" />
<glyph unicode="&#x41e;" horiz-adv-x="1575" d="M62 709q0 300 212.5 512.5t512.5 212.5q301 0 513.5 -212.5t212.5 -512.5q0 -301 -212.5 -513.5t-513.5 -212.5q-300 0 -512.5 212.5t-212.5 513.5zM143 709q0 -267 189 -456t455 -189q267 0 456 189t189 456q0 266 -189 455t-456 189q-266 0 -455 -189t-189 -455z" />
<glyph unicode="&#x41f;" horiz-adv-x="1072" d="M94 0v1414h884v-1414h-80v1334h-724v-1334h-80z" />
<glyph unicode="&#x420;" horiz-adv-x="959" d="M112 0v1414h371q162 -22 275 -135q135 -136 135 -326q0 -192 -135 -327.5t-326 -135.5h-240v-490h-80zM192 571h240q157 0 269 111.5t112 270.5q0 158 -112 269t-269 111h-240v-762z" />
<glyph unicode="&#x421;" horiz-adv-x="1347" d="M74 707q0 299 211.5 511.5t512.5 212.5q280 0 487 -189l-61 -54q-182 161 -426 161q-266 0 -454.5 -188t-188.5 -454q0 -267 188.5 -455t454.5 -188q244 0 426 161l61 -54q-207 -188 -487 -188q-301 0 -512.5 211.5t-211.5 512.5z" />
<glyph unicode="&#x422;" horiz-adv-x="899" d="M52 1334v80h795v-80h-358v-1334h-79v1334h-358z" />
<glyph unicode="&#x423;" horiz-adv-x="1127" d="M-40 1414h91l542 -828l483 828h91q-698 -1245 -842 -1357q-88 -68 -164 -68q-49 0 -94 28l39 70q44 -24 84 -24q18 0 35 5q54 15 200 239l125 204z" />
<glyph unicode="&#x424;" horiz-adv-x="1415" d="M60 695q0 181 174 309q161 118 433 126v282h80v-282q274 -8 435 -126q173 -128 173 -309q0 -180 -173 -308q-161 -120 -435 -128v-255h-80v255q-272 8 -433 128q-174 128 -174 308zM146 695q0 -145 148 -247q137 -94 373 -101v695q-236 -7 -373 -101q-148 -102 -148 -246 zM747 347q237 7 374 101q148 102 148 247q0 144 -148 246q-137 94 -374 101v-695z" />
<glyph unicode="&#x425;" horiz-adv-x="1018" d="M15 0l448 777l-368 637h91l322 -559l323 559h91l-369 -637l450 -777h-91l-404 698l-403 -698h-90z" />
<glyph unicode="&#x426;" horiz-adv-x="1142" d="M100 1v1413h80v-1333h787v1333h80v-1327h75v-418h-79v332h-943z" />
<glyph unicode="&#x427;" horiz-adv-x="1097" d="M81 1024v390h87l-1 -398q0 -211 110 -321q105 -105 261 -105h15q165 5 275 110q99 95 109 219v495h79v-1414h-79v703q-24 -32 -55 -60q-133 -123 -339 -123t-334 123q-128 121 -128 381z" />
<glyph unicode="&#x428;" horiz-adv-x="1614" d="M100 1v1413h80v-1333h587v1333h80v-1333h587v1333h80v-1413h-1414z" />
<glyph unicode="&#x429;" horiz-adv-x="1616" d="M100 1v1413h80v-1333h587v1333h80v-1333h587v1333h80v-1327h75v-418h-79v332h-1410z" />
<glyph unicode="&#x42a;" horiz-adv-x="1333" d="M20 1334v80h419v-669h461q147 -3 243 -108.5t96 -258.5q0 -163 -96 -269t-243 -109h-542v80h1v585h-1v80h1v589h-339zM439 80h454q110 0 188.5 89.5t78.5 207.5q0 110 -78.5 199t-188.5 89h-454v-585z" />
<glyph unicode="&#x42b;" horiz-adv-x="1396" d="M93 0v1414h80v-669h470q147 -3 243 -108.5t96 -258.5q0 -163 -96 -269t-243 -109h-550zM173 80h463q110 0 188.5 89.5t78.5 207.5q0 110 -78.5 199t-188.5 89h-463v-585zM1225 0v1414h80v-1414h-80z" />
<glyph unicode="&#x42c;" horiz-adv-x="1032" d="M93 0v1414h80v-669h470q147 -3 243 -108.5t96 -258.5q0 -163 -96 -269t-243 -109h-550zM173 80h463q110 0 188.5 89.5t78.5 207.5q0 110 -78.5 199t-188.5 89h-463v-585z" />
<glyph unicode="&#x42d;" horiz-adv-x="1568" d="M62 478h86q47 -124 149 -225q189 -189 456 -189q266 0 455 189q175 175 188 416h-871v80h871q-13 240 -188 415q-189 189 -455 189q-267 0 -456 -189q-36 -36 -65 -74h-99q44 69 106 132q213 212 514 212q300 0 512.5 -212.5t212.5 -512.5q0 -301 -212.5 -513.5 t-512.5 -212.5q-301 0 -514 213q-126 125 -177 282z" />
<glyph unicode="&#x42e;" horiz-adv-x="2041" d="M100 0v1414h80v-667h349q13 276 212 475q212 212 512 212q301 0 513.5 -212.5t212.5 -512.5q0 -301 -212.5 -513.5t-513.5 -212.5q-300 0 -512 213q-198 197 -212 471h-349v-667h-80zM609 709q0 -267 189 -456t455 -189q267 0 456 189t189 456q0 266 -189 455t-456 189 q-266 0 -455 -189t-189 -455z" />
<glyph unicode="&#x42f;" horiz-adv-x="961" d="M80 953q0 190 135 326q113 113 275 135h371v-1414h-80v490h-240q-12 0 -24 1l-315 -491h-98l326 503q-121 29 -215 123q-135 135 -135 327zM160 953q0 -159 112 -270.5t269 -111.5h240v762h-240q-157 0 -269 -111t-112 -269z" />
<glyph unicode="&#x430;" horiz-adv-x="1122" d="M74 460q0 202 142.5 344t342.5 142q202 0 344 -142q27 -28 50 -59v123h80v-868h-80v177q-23 -31 -50 -59q-142 -143 -344 -143q-200 0 -342.5 142.5t-142.5 342.5zM158 460q0 -166 117.5 -283t283.5 -117t284 118q88 88 110 204v157q-22 117 -110 205q-118 118 -284 118 t-283.5 -118t-117.5 -284z" />
<glyph unicode="&#x431;" horiz-adv-x="1178" d="M97 725q0 281 133 460q164 222 380 222q45 0 91 -9q123 -25 200 -25q93 0 117 37v-79q-24 -35 -111 -35q-73 0 -192 25q-47 10 -90 10q-200 0 -339 -205q-107 -157 -107 -398q0 -30 2 -61q35 74 98 137q142 142 342 142q202 0 343.5 -142t141.5 -344 q0 -200 -141.5 -342.5t-343.5 -142.5q-200 0 -342 143q-127 126 -141 298h-7q-34 168 -34 309zM220 460q0 -166 117.5 -283t283.5 -117t283.5 117t117.5 283t-117.5 284t-283.5 118t-283.5 -118t-117.5 -284z" />
<glyph unicode="&#x432;" horiz-adv-x="755" d="M100 0v870h329v-1q115 -5 185.5 -75.5t70.5 -158.5v-1q0 -88 -70 -158q-25 -25 -54 -41q29 -16 54 -40q70 -71 70 -159v-1q0 -88 -70.5 -158.5t-185.5 -75.5v-1h-329zM179 80h247v1q86 4 132.5 50.5t46.5 103.5q0 58 -46.5 104.5t-132.5 50.5v1h-247v-311zM179 479h247v1 q86 4 132.5 50.5t46.5 104.5q0 57 -46.5 103.5t-132.5 50.5v1h-247v-311z" />
<glyph unicode="&#x433;" horiz-adv-x="607" d="M100 0v868h437v-80h-358v-788h-79z" />
<glyph unicode="&#x434;" horiz-adv-x="949" d="M50 87h71q2 2 4 3q188 188 188 555q0 75 -8 143q-5 41 -13 80h537v-781h70v-418h-79v331h-691v-331h-79v418zM225 80h525v708h-363q7 -68 7 -143q0 -358 -169 -565z" />
<glyph unicode="&#x435;" horiz-adv-x="1042" d="M52 460q0 202 142.5 344t342.5 142q202 0 344 -142q125 -126 125 -299h-867q-3 -21 -3 -45q0 -166 117.5 -283t283.5 -117t284 118q20 20 38 42l85 -30q-15 -25 -63 -72q-142 -143 -344 -143q-200 0 -342.5 142.5t-142.5 342.5zM154 586h762q-28 91 -95 158 q-118 118 -284 118t-284 -118q-70 -71 -99 -158z" />
<glyph unicode="&#x436;" horiz-adv-x="1195" d="M-12 0l341 603l-214 265h102l340 -397v397h81v-397l340 397h102l-214 -265l341 -603h-98l-295 539l-176 -195v-344h-81v344l-176 195l-295 -539h-98z" />
<glyph unicode="&#x437;" horiz-adv-x="756" d="M58 237v9h85v-9q0 -72 67 -122.5t162 -50.5t162 50.5t67 122.5t-67 123q-40 29 -89 42h-200v79h228q33 13 61 34q67 50 67 122t-67 122.5t-162 50.5t-162 -50q-58 -45 -66 -105h-85q8 87 91 150q92 70 222 70t222 -70t92 -168t-92 -168q-24 -18 -51 -32q27 -14 51 -32 q92 -70 92 -168t-92 -168t-222 -70t-222 70t-92 168z" />
<glyph unicode="&#x438;" horiz-adv-x="899" d="M90 0v868h79v-735l555 735h85v-868h-79v742l-561 -741v-1h-79z" />
<glyph unicode="&#x439;" horiz-adv-x="899" d="M90 0v868h79v-735l555 735h85v-868h-79v742l-561 -741v-1h-79zM250 1219h71q10 -20 27 -37q42 -43 103 -43q59 0 101 43q18 17 28 37h69q-15 -46 -52 -83q-60 -61 -146 -61q-88 0 -148 61q-38 39 -53 83z" />
<glyph unicode="&#x43a;" horiz-adv-x="738" d="M100 0v868h80v-398l341 398h102l-214 -265l341 -603h-98l-295 539l-177 -196v-343h-80z" />
<glyph unicode="&#x43b;" horiz-adv-x="984" d="M50 -1v79q107 12 107 120v670h737v-868h-79v788h-579v-588q0 -186 -186 -201z" />
<glyph unicode="&#x43c;" horiz-adv-x="979" d="M80 0v868h85l325 -749l324 749h85v-868h-79v672l-291 -672h-79l-291 672v-672h-79z" />
<glyph unicode="&#x43d;" horiz-adv-x="897" d="M80 0v868h79v-358h579v358h79v-868h-79v430h-579v-430h-79z" />
<glyph unicode="&#x43e;" horiz-adv-x="1114" d="M72 460q0 202 142.5 344t342.5 142q202 0 343.5 -142t141.5 -344q0 -200 -141.5 -342.5t-343.5 -142.5q-200 0 -342.5 142.5t-142.5 342.5zM156 460q0 -166 117.5 -283t283.5 -117t283.5 117t117.5 283t-117.5 284t-283.5 118t-283.5 -118t-117.5 -284z" />
<glyph unicode="&#x43f;" horiz-adv-x="917" d="M90 0v868h737v-868h-79v788h-579v-788h-79z" />
<glyph unicode="&#x440;" horiz-adv-x="1110" d="M92 -331v1199h80v-122q22 30 50 58q142 141 343 141t343 -141.5t142 -343.5q0 -200 -142 -342.5t-343 -142.5t-343 143q-28 28 -50 58v-507h-80zM172 377q22 -114 109 -200q118 -118 284 -118t283.5 117.5t117.5 283.5t-117.5 284t-283.5 118t-284 -118 q-87 -87 -109 -201v-166z" />
<glyph unicode="&#x441;" horiz-adv-x="985" d="M52 461q0 201 142.5 343t342.5 142q202 0 344 -142q29 -29 52 -60l-84 -31q-13 16 -28 32q-118 117 -284 117q-165 0 -282.5 -117.5t-117.5 -283.5t117.5 -283.5t282.5 -117.5q166 0 284 118q15 15 28 31l84 -31q-23 -31 -52 -60q-142 -143 -344 -143 q-200 0 -342.5 142.5t-142.5 343.5z" />
<glyph unicode="&#x442;" horiz-adv-x="955" d="M80 788v80h795v-80h-358v-788h-79v788h-358z" />
<glyph unicode="&#x443;" horiz-adv-x="779" d="M15 868h89l285 -606l286 606h89l-559 -1198h-89l229 491z" />
<glyph unicode="&#x444;" horiz-adv-x="1968" d="M70 460q0 202 141.5 343.5t343.5 141.5q200 0 343 -141q25 -26 46 -54v487h80v-487q21 28 46 54q143 141 343 141q202 0 343.5 -141.5t141.5 -343.5q0 -200 -141.5 -342.5t-343.5 -142.5q-200 0 -343 143q-25 25 -46 53v-487h-80v487q-21 -28 -46 -53 q-143 -143 -343 -143q-202 0 -343.5 142.5t-141.5 342.5zM154 460q0 -166 117.5 -283.5t283.5 -117.5t283 118q81 80 106 184v198q-25 105 -106 185q-117 118 -283 118t-283.5 -118t-117.5 -284zM1024 361q25 -104 106 -184q117 -118 283 -118t283.5 117.5t117.5 283.5 t-117.5 284t-283.5 118t-283 -118q-81 -80 -106 -185v-198z" />
<glyph unicode="&#x445;" horiz-adv-x="637" d="M0 0l285 459l-255 409h93l208 -335l208 335h93l-255 -409l285 -459h-92l-239 384l-239 -384h-92z" />
<glyph unicode="&#x446;" horiz-adv-x="949" d="M100 0v868h79v-788h579v788h79v-781h70v-418h-79v331h-728z" />
<glyph unicode="&#x447;" horiz-adv-x="1057" d="M71 824v50h87l-1 -58q0 -211 100 -321q96 -105 251 -105h15q165 5 265 110q90 94 99 218v156h79v-874h-79v495q-20 -28 -45 -52q-123 -123 -329 -123t-324 123q-118 121 -118 381z" />
<glyph unicode="&#x448;" horiz-adv-x="1194" d="M90 1v867h80v-787h387v787h80v-787h387v787h80v-867h-1014z" />
<glyph unicode="&#x449;" horiz-adv-x="1239" d="M110 1v867h80v-787h387v787h80v-787h387v787h80v-781h75v-418h-79v332h-1010z" />
<glyph unicode="&#x44a;" horiz-adv-x="1061" d="M30 788v80h303v-357h372v-1q115 -5 195 -75q81 -71 81 -179v-1q0 -108 -81 -179q-80 -70 -195 -75v-1h-451v788h-224zM333 80h369v1q86 4 143 51q56 46 56 123q0 78 -56 125q-57 46 -143 50v1h-369v-351z" />
<glyph unicode="&#x44b;" horiz-adv-x="1279" d="M100 0v868h79v-357h472v-1q115 -5 195 -75q81 -71 81 -179v-1q0 -108 -81 -179q-80 -70 -195 -75v-1h-551zM179 80h469v1q86 4 143 51q56 46 56 123q0 78 -56 125q-57 46 -143 50v1h-469v-351zM1100 0v868h79v-868h-79z" />
<glyph unicode="&#x44c;" horiz-adv-x="897" d="M100 0v868h79v-357h372v-1q115 -5 195 -75q81 -71 81 -179v-1q0 -108 -81 -179q-80 -70 -195 -75v-1h-451zM179 80h369v1q86 4 143 51q56 46 56 123q0 78 -56 125q-57 46 -143 50v1h-369v-351z" />
<glyph unicode="&#x44d;" horiz-adv-x="1082" d="M72 636q30 92 105 168q142 142 344 142q200 0 342.5 -142t142.5 -344q0 -200 -142.5 -342.5t-342.5 -142.5q-202 0 -344 143q-28 27 -45 47h118q114 -105 271 -105q166 0 283.5 117t117.5 283q0 24 -3 45h-543v81h528q-29 87 -99 158q-118 118 -284 118t-284 -118 q-48 -48 -76 -108h-89z" />
<glyph unicode="&#x44e;" horiz-adv-x="1519" d="M100 0v868h79v-358h302q16 170 141 294q142 142 342 142q202 0 343.5 -142t141.5 -344q0 -200 -141.5 -342.5t-343.5 -142.5q-200 0 -342 143q-132 131 -142 312h-301v-430h-79zM563 460q0 -166 117.5 -283t283.5 -117t283.5 117t117.5 283t-117.5 284t-283.5 118 t-283.5 -118t-117.5 -284z" />
<glyph unicode="&#x44f;" horiz-adv-x="797" d="M70 612v1q0 108 81 179q80 70 195 75v1h351v-868h-79v357h-213l-19 -41l-51 -109l-96 -207h-88l168 360q-98 11 -168 73q-81 71 -81 179zM150 613q0 -78 57 -124q56 -47 142 -51v-1h269v351h-269v-1q-86 -4 -142 -50q-57 -47 -57 -124z" />
<glyph unicode="&#x451;" horiz-adv-x="1042" d="M52 460q0 202 142.5 344t342.5 142q202 0 344 -142q125 -126 125 -299h-867q-3 -21 -3 -45q0 -166 117.5 -283t283.5 -117t284 118q20 20 38 42l85 -30q-15 -25 -63 -72q-142 -143 -344 -143q-200 0 -342.5 142.5t-142.5 342.5zM154 586h762q-28 91 -95 158 q-118 118 -284 118t-284 -118q-70 -71 -99 -158zM317 1137q0 32 23.5 55t56.5 23q32 0 55.5 -23t23.5 -55q0 -34 -23.5 -57t-55.5 -23q-33 0 -56.5 23t-23.5 57zM582 1137q0 32 23.5 55t56.5 23q32 0 55.5 -23t23.5 -55q0 -34 -23.5 -57t-55.5 -23q-33 0 -56.5 23t-23.5 57z " />
<glyph unicode="&#x452;" horiz-adv-x="891" d="M20 1134v79h100v201h80v-201h194v-79h-194v-311q100 97 242 97q153 0 249.5 -96.5t99.5 -242.5v-631q0 -108 -73 -181.5t-180 -73.5v80q73 0 124 50q49 49 49 135v613q0 111 -80 189t-189 78q-110 0 -189 -77q-36 -35 -53 -73v-690h-80v1134h-100z" />
<glyph unicode="&#x453;" horiz-adv-x="589" d="M100 0v868h437v-80h-358v-788h-79zM222 1052l144 165h147l-217 -165h-74z" />
<glyph unicode="&#x454;" d="M80 460q0 202 142.5 344t342.5 142q202 0 344 -142q75 -76 105 -168h-89q-28 60 -76 108q-118 118 -284 118t-284 -118q-70 -71 -99 -158h528v-81h-543q-3 -21 -3 -45q0 -166 117.5 -283t283.5 -117q157 0 270 105h118q-16 -20 -44 -47q-142 -143 -344 -143 q-200 0 -342.5 142.5t-142.5 342.5z" />
<glyph unicode="&#x455;" horiz-adv-x="644" d="M55 240l79 20q0 -77 52.5 -129.5t125.5 -52.5t126 52.5t53 127.5q0 73 -53 125q-28 28 -114 83q-101 55 -140 94q-61 61 -61 147t61 147.5t147 61.5t143 -57q55 -55 55 -126v-4l-69 -28q-9 67 -42 101t-87 34q-53 0 -91 -38t-38 -91t38 -91q22 -23 93 -68 q113 -61 161 -109q75 -76 75 -181q0 -108 -75 -183.5t-182 -75.5t-182 75.5t-75 165.5z" />
<glyph unicode="&#x456;" horiz-adv-x="317" d="M79 1097q0 32 23.5 55t56.5 23q32 0 55.5 -23t23.5 -55q0 -34 -23.5 -57t-55.5 -23q-33 0 -56.5 23t-23.5 57zM119 0v868h79v-868h-79z" />
<glyph unicode="&#x457;" horiz-adv-x="317" d="M-53 1137q0 32 23.5 55t56.5 23q32 0 55.5 -23t23.5 -55q0 -34 -23.5 -57t-55.5 -23q-33 0 -56.5 23t-23.5 57zM120 0v868h79v-868h-79zM212 1137q0 32 23.5 55t56.5 23q32 0 55.5 -23t23.5 -55q0 -34 -23.5 -57t-55.5 -23q-33 0 -56.5 23t-23.5 57z" />
<glyph unicode="&#x458;" horiz-adv-x="284" d="M-11 -122q107 12 107 120v870h79v-868q0 -179 -186 -194v72zM56 1097q0 32 23.5 55t56.5 23q32 0 55.5 -23t23.5 -55q0 -34 -23.5 -57t-55.5 -23q-33 0 -56.5 23t-23.5 57z" />
<glyph unicode="&#x459;" horiz-adv-x="1615" d="M52 -1v79q107 12 107 120v670h737v-357h373v-1q115 -5 195 -75q81 -71 81 -179v-1q0 -108 -81 -179q-80 -70 -195 -75v-1h-452v788h-579v-588q0 -186 -186 -201zM897 80h369v1q86 4 143 51q56 46 56 123q0 78 -56 125q-57 46 -143 50v1h-369v-351z" />
<glyph unicode="&#x45a;" horiz-adv-x="1545" d="M90 0v868h79v-358h579v358h79v-357h372v-1q115 -5 195 -75q81 -71 81 -179v-1q0 -108 -81 -179q-80 -70 -195 -75v-1h-451v430h-579v-430h-79zM827 80h369v1q86 4 143 51q56 46 56 123q0 78 -56 125q-57 46 -143 50v1h-369v-351z" />
<glyph unicode="&#x45b;" horiz-adv-x="891" d="M20 1134v79h100v201h80v-201h194v-79h-194v-311q100 97 242 97q153 0 249.5 -96.5t99.5 -242.5v-581h-80v573q0 111 -80 189t-189 78q-110 0 -189 -77q-36 -35 -53 -73v-690h-80v1134h-100z" />
<glyph unicode="&#x45c;" horiz-adv-x="738" d="M100 0v868h80v-398l341 398h102l-214 -265l341 -603h-98l-295 539l-177 -196v-343h-80zM228 1053l144 165h147l-217 -165h-74z" />
<glyph unicode="&#x45d;" horiz-adv-x="899" d="M90 0v868h79v-735l555 735h85v-868h-79v742l-561 -741v-1h-79zM290 1217h147l144 -165h-74z" />
<glyph unicode="&#x45e;" horiz-adv-x="779" d="M15 868h89l285 -606l286 606h89l-329 -705h-1l-229 -493h-89l229 491zM190 1219h71q10 -20 27 -37q42 -43 103 -43q59 0 101 43q18 17 28 37h69q-15 -46 -52 -83q-60 -61 -146 -61q-88 0 -148 61q-38 39 -53 83z" />
<glyph unicode="&#x45f;" horiz-adv-x="917" d="M90 0v868h79v-788h579v788h79v-868h-329v-331h-79v331h-329z" />
<glyph unicode="&#x490;" horiz-adv-x="837" d="M112 0v1414h596v240h79v-318h-56v-2h-539v-1334h-80z" />
<glyph unicode="&#x491;" horiz-adv-x="641" d="M100 0v868h412v239h79v-319h-412v-788h-79z" />
<glyph unicode="&#x2000;" horiz-adv-x="842" />
<glyph unicode="&#x2001;" horiz-adv-x="1685" />
<glyph unicode="&#x2002;" horiz-adv-x="842" />
<glyph unicode="&#x2003;" horiz-adv-x="1685" />
<glyph unicode="&#x2004;" horiz-adv-x="561" />
<glyph unicode="&#x2005;" horiz-adv-x="421" />
<glyph unicode="&#x2006;" horiz-adv-x="280" />
<glyph unicode="&#x2007;" horiz-adv-x="280" />
<glyph unicode="&#x2008;" horiz-adv-x="210" />
<glyph unicode="&#x2009;" horiz-adv-x="337" />
<glyph unicode="&#x200a;" horiz-adv-x="93" />
<glyph unicode="&#x2010;" horiz-adv-x="596" d="M48 483v80h500v-80h-500z" />
<glyph unicode="&#x2011;" horiz-adv-x="596" d="M48 483v80h500v-80h-500z" />
<glyph unicode="&#x2012;" horiz-adv-x="596" d="M48 483v80h500v-80h-500z" />
<glyph unicode="&#x2013;" horiz-adv-x="681" d="M0 483v80h681v-80h-681z" />
<glyph unicode="&#x2014;" horiz-adv-x="1254" d="M0 483v80h1254v-80h-1254z" />
<glyph unicode="&#x2018;" horiz-adv-x="255" d="M49 1205q0 19 6 35l87 174h57l-50 -132q20 -4 36 -20q23 -23 23 -57q0 -33 -23.5 -56t-55.5 -23q-33 0 -56.5 23t-23.5 56z" />
<glyph unicode="&#x2019;" horiz-adv-x="255" d="M48 1345q0 33 23.5 55.5t56.5 22.5q32 0 55.5 -22.5t23.5 -55.5q0 -19 -6 -35l-87 -175h-57l50 133q-20 4 -35 20q-24 23 -24 57z" />
<glyph unicode="&#x201a;" horiz-adv-x="255" d="M48 65q0 33 23.5 56t56.5 23q32 0 55.5 -23t23.5 -56q0 -18 -6 -34l-87 -175h-57l50 133q-20 4 -35 20q-24 23 -24 56z" />
<glyph unicode="&#x201c;" horiz-adv-x="478" d="M48 1205q0 19 6 35l87 174h57l-50 -132q20 -4 36 -20q23 -23 23 -57q0 -33 -23.5 -56t-55.5 -23q-33 0 -56.5 23t-23.5 56zM271 1205q0 19 6 35l87 174h57l-50 -132q20 -4 36 -20q23 -23 23 -57q0 -33 -23.5 -56t-55.5 -23q-33 0 -56.5 23t-23.5 56z" />
<glyph unicode="&#x201d;" horiz-adv-x="478" d="M48 1345q0 33 23.5 55.5t56.5 22.5q32 0 55.5 -22.5t23.5 -55.5q0 -19 -6 -35l-87 -175h-57l50 133q-20 4 -35 20q-24 23 -24 57zM271 1345q0 33 23.5 55.5t56.5 22.5q32 0 55.5 -22.5t23.5 -55.5q0 -19 -6 -35l-87 -175h-57l50 133q-20 4 -35 20q-24 23 -24 57z" />
<glyph unicode="&#x201e;" horiz-adv-x="478" d="M48 66q0 33 23.5 55.5t56.5 22.5q32 0 55.5 -22.5t23.5 -55.5q0 -19 -6 -35l-87 -175h-57l50 133q-20 4 -35 20q-24 23 -24 57zM271 66q0 33 23.5 55.5t56.5 22.5q32 0 55.5 -22.5t23.5 -55.5q0 -19 -6 -35l-87 -175h-57l50 133q-20 4 -35 20q-24 23 -24 57z" />
<glyph unicode="&#x2022;" horiz-adv-x="670" d="M200 657q0 56 40 95t96 39q54 0 94 -39t40 -95t-40 -95t-94 -39q-56 0 -96 39t-40 95z" />
<glyph unicode="&#x2026;" horiz-adv-x="2048" d="M55 67q0 33 23.5 56t56.5 23q32 0 55.5 -23t23.5 -56t-23.5 -56t-55.5 -23q-33 0 -56.5 23t-23.5 56zM738 67q0 33 23.5 56t56.5 23q32 0 55.5 -23t23.5 -56t-23.5 -56t-55.5 -23q-33 0 -56.5 23t-23.5 56zM1421 67q0 33 23.5 56t56.5 23q32 0 55.5 -23t23.5 -56 t-23.5 -56t-55.5 -23q-33 0 -56.5 23t-23.5 56z" />
<glyph unicode="&#x202f;" horiz-adv-x="337" />
<glyph unicode="&#x2039;" horiz-adv-x="596" d="M100 425l396 425v-113l-291 -312l291 -311v-114z" />
<glyph unicode="&#x203a;" horiz-adv-x="596" d="M100 0v114l290 311l-290 312v113l396 -425z" />
<glyph unicode="&#x205f;" horiz-adv-x="421" />
<glyph unicode="&#x20ac;" horiz-adv-x="1044" d="M-10 511l20 80h128q-5 57 -5 120h-123l20 80h105q15 275 131 435q132 182 396 187q192 0 294 -90l-5 -89q-115 99 -293 99q-216 -10 -318 -167q-89 -135 -112 -375h534l-16 -80h-522v-21q0 -52 4 -99h514l-16 -80h-488q37 -163 107 -270q107 -167 367 -172q190 6 307 105 v-105q-130 -80 -312 -80q-290 0 -432 192q-97 132 -128 330h-157z" />
<glyph unicode="&#x2122;" horiz-adv-x="1255" d="M50 1344v70h579l229 -352l228 352h69v-604h-74v462l-223 -343l-224 344v-463h-73v534h-216v-534h-74v534h-221z" />
<glyph unicode="&#x25fc;" horiz-adv-x="870" d="M0 0v870h870v-870h-870z" />
</font>
</defs>
</svg>
